PathFileType	4	(X/Y/Z)	/home/nbianco/projects/addbio/data/HamnerRunning2013/Processed/subject17//results/MarkerData/run500.trc
DataRate	CameraRate	NumFrames	NumMarkers	Units	OrigDataRate	OrigDataStartFrame	OrigNumFrames
120.005	120.005	9	41	m	120.005	29	238
Frame#	Time	C7			CLAV			LACR			LASI			LCAL			LFAradius			LFAsuperior			LFAulna			LLEL			LMEL			LMT5			LPSI			LTB1			LTB2			LTB3			LTH1			LTH2			LTH3			LTOE			LUA1			LUA2			LUA3			RACR			RASI			RCAL			RFAradius			RFAsuperior			RFAulna			RLEL			RMEL			RMT5			RPSI			RTB1			RTB2			RTB3			RTH1			RTH3			RTOE			RUA1			RUA2			RUA3		
		X1	Y1	Z1	X2	Y2	Z2	X3	Y3	Z3	X4	Y4	Z4	X5	Y5	Z5	X6	Y6	Z6	X7	Y7	Z7	X8	Y8	Z8	X9	Y9	Z9	X10	Y10	Z10	X11	Y11	Z11	X12	Y12	Z12	X13	Y13	Z13	X14	Y14	Z14	X15	Y15	Z15	X16	Y16	Z16	X17	Y17	Z17	X18	Y18	Z18	X19	Y19	Z19	X20	Y20	Z20	X21	Y21	Z21	X22	Y22	Z22	X23	Y23	Z23	X24	Y24	Z24	X25	Y25	Z25	X26	Y26	Z26	X27	Y27	Z27	X28	Y28	Z28	X29	Y29	Z29	X30	Y30	Z30	X31	Y31	Z31	X32	Y32	Z32	X33	Y33	Z33	X34	Y34	Z34	X35	Y35	Z35	X36	Y36	Z36	X37	Y37	Z37	X38	Y38	Z38	X39	Y39	Z39	X40	Y40	Z40	X41	Y41	Z41

30	0.491667	0.916745	1.51836	-0.320801	1.0444	1.46338	-0.305878	0.957652	1.48312	-0.505639	1.04057	1.0309	-0.4413	1.08464	0.210187	-0.388337	0.897141	1.14233	-0.500125	0.813647	1.19711	-0.586984	0.869163	1.10342	-0.549996	0.732729	1.29597	-0.609276	0.703741	1.30515	-0.527634	1.28371	0.171834	-0.428827	0.879926	1.05449	-0.364076	1.26679	0.499055	-0.359621	1.21702	0.436524	-0.43921	1.21307	0.335233	-0.372185	1.06127	0.875559	-0.495955	1.16711	0.824678	-0.467908	1.17742	0.695617	-0.435052	1.28646	0.187653	-0.338562	0.857316	1.40877	-0.56748	0.781912	1.39988	-0.546702	0.811251	1.3362	-0.589986	1.01433	1.47541	-0.127194	1.04379	0.98623	-0.213463	0.39659	0.297972	-0.288252	1.10427	1.16669	-0.174329	1.03702	1.18239	-0.0748142	1.12048	1.11246	-0.131786	0.930901	1.19895	-0.00667228	0.8851	1.17565	-0.072727	0.446445	0.102545	-0.260148	0.882015	1.04873	-0.267473	0.659591	0.42287	-0.281478	0.587894	0.404197	-0.220677	0.568465	0.333817	-0.28388	0.916235	0.839677	-0.150563	0.762034	0.638651	-0.214249	0.482492	0.113034	-0.348296	0.980111	1.34262	-0.065453	0.904471	1.33444	-0.0655644	0.953626	1.26752	-0.0290257
31	0.5	0.915937	1.51991	-0.319918	1.04409	1.46545	-0.306453	0.954688	1.48492	-0.504843	1.04278	1.03387	-0.442482	1.12567	0.191111	-0.383872	0.894413	1.14804	-0.502079	0.810019	1.20333	-0.588063	0.86701	1.10952	-0.552549	0.727972	1.30113	-0.608621	0.699624	1.30953	-0.526639	1.32834	0.173335	-0.420513	0.882227	1.05834	-0.363752	1.27499	0.498506	-0.357156	1.23396	0.430036	-0.436927	1.23943	0.329815	-0.368419	1.06318	0.875706	-0.495637	1.16755	0.822441	-0.465985	1.17733	0.693579	-0.435305	1.32786	0.191845	-0.330868	0.853749	1.41245	-0.566528	0.778454	1.4039	-0.545417	0.806844	1.3409	-0.590135	1.01681	1.47848	-0.128379	1.04608	0.987927	-0.213802	0.380923	0.321275	-0.279447	1.1046	1.17268	-0.176457	1.03913	1.18779	-0.0753147	1.12192	1.1184	-0.134458	0.93468	1.20359	-0.00484715	0.887099	1.18021	-0.0699403	0.420928	0.122256	-0.255561	0.885174	1.05286	-0.266756	0.647348	0.435753	-0.282753	0.578957	0.417085	-0.218792	0.55274	0.34987	-0.282432	0.915207	0.845519	-0.149015	0.757088	0.648281	-0.214322	0.4549	0.132188	-0.344341	0.984126	1.34676	-0.0654161	0.908424	1.33946	-0.0641785	0.957716	1.27238	-0.0275482
32	0.508333	0.915216	1.521	-0.319055	1.04378	1.46701	-0.306984	0.952208	1.48584	-0.504373	1.04455	1.03494	-0.443287	1.16501	0.174973	-0.378424	0.892424	1.15211	-0.504164	0.807247	1.20805	-0.589367	0.865789	1.11415	-0.555492	0.724065	1.30476	-0.608091	0.696285	1.31222	-0.525863	1.36882	0.177689	-0.412447	0.884097	1.06151	-0.36391	1.28123	0.496972	-0.355749	1.24875	0.423514	-0.435142	1.26333	0.325473	-0.364781	1.06441	0.873709	-0.495039	1.16797	0.819042	-0.463151	1.17736	0.689771	-0.436732	1.36503	0.198901	-0.323585	0.850774	1.4147	-0.565681	0.775429	1.40636	-0.54442	0.803138	1.3442	-0.590322	1.019	1.48059	-0.12929	1.0475	0.989501	-0.213857	0.363555	0.345642	-0.272135	1.10413	1.17643	-0.177995	1.0406	1.19152	-0.0754162	1.12244	1.12211	-0.136499	0.937809	1.20727	-0.00296898	0.888657	1.18374	-0.0670879	0.397776	0.145096	-0.250824	0.887692	1.05664	-0.266341	0.636693	0.446348	-0.284581	0.571755	0.427799	-0.217515	0.537403	0.366161	-0.282045	0.913999	0.850915	-0.148972	0.755581	0.653825	-0.214002	0.427395	0.154226	-0.341266	0.987705	1.34964	-0.0654944	0.911917	1.34337	-0.0624916	0.961201	1.27608	-0.0260618
33	0.516667	0.914672	1.52167	-0.318456	1.04348	1.46814	-0.307532	0.950341	1.48602	-0.504301	1.04573	1.03433	-0.443289	1.20104	0.161877	-0.372603	0.891342	1.15447	-0.506362	0.805408	1.21114	-0.590823	0.86552	1.11716	-0.55864	0.721153	1.30688	-0.607713	0.693931	1.31318	-0.525246	1.40394	0.184423	-0.404795	0.88546	1.06376	-0.364577	1.28525	0.494506	-0.354902	1.26098	0.417218	-0.433508	1.28374	0.322099	-0.361137	1.06462	0.870292	-0.494206	1.16806	0.814678	-0.460472	1.17641	0.684534	-0.438217	1.39667	0.208224	-0.31683	0.848554	1.41558	-0.56498	0.773035	1.40728	-0.543615	0.800226	1.34617	-0.590486	1.02064	1.48189	-0.129943	1.04818	0.991309	-0.213567	0.346728	0.371425	-0.266479	1.10299	1.17779	-0.17896	1.04146	1.19346	-0.0752055	1.12213	1.12347	-0.137769	0.940144	1.20995	-0.00119598	0.889703	1.18616	-0.064393	0.375869	0.170229	-0.246057	0.889204	1.06004	-0.266421	0.628048	0.454345	-0.285375	0.564967	0.437445	-0.216167	0.523273	0.382118	-0.281379	0.913004	0.855597	-0.150143	0.757182	0.655257	-0.213107	0.400702	0.178325	-0.338482	0.990521	1.35131	-0.0656495	0.91465	1.34601	-0.0606528	0.96385	1.27862	-0.024636
34	0.525	0.914354	1.52198	-0.318362	1.04319	1.46886	-0.308106	0.949188	1.4856	-0.504588	1.04624	1.03245	-0.442209	1.23216	0.151918	-0.367347	0.891317	1.15508	-0.508631	0.804631	1.21255	-0.592363	0.866238	1.11848	-0.56183	0.719402	1.3075	-0.607509	0.692752	1.31248	-0.524767	1.43274	0.192493	-0.397609	0.88628	1.06486	-0.365663	1.28696	0.491248	-0.354	1.2704	0.411585	-0.431728	1.29996	0.319619	-0.357463	1.06363	0.866018	-0.493398	1.16727	0.809102	-0.459197	1.17328	0.678068	-0.438953	1.42178	0.218451	-0.310602	0.847228	1.41522	-0.564487	0.771497	1.40676	-0.542868	0.798269	1.34687	-0.590619	1.02147	1.48253	-0.130373	1.04843	0.993438	-0.212885	0.333043	0.398868	-0.262321	1.10135	1.17673	-0.179328	1.04169	1.19359	-0.0747471	1.12101	1.12248	-0.138164	0.941486	1.21169	0.000305242	0.889977	1.18765	-0.0620904	0.354233	0.197166	-0.241208	0.889573	1.06289	-0.26708	0.622079	0.459938	-0.284217	0.558374	0.447365	-0.214218	0.511481	0.397301	-0.279439	0.912774	0.859313	-0.151536	0.761394	0.653274	-0.211686	0.376003	0.203737	-0.335096	0.992242	1.35198	-0.0657842	0.91632	1.34738	-0.0589111	0.965431	1.28011	-0.0233469
35	0.533333	0.914262	1.52195	-0.318896	1.04293	1.46916	-0.308658	0.948791	1.48473	-0.505121	1.04609	1.02985	-0.440159	1.25698	0.144933	-0.363318	0.892425	1.15395	-0.510934	0.805053	1.21224	-0.593937	0.867963	1.11807	-0.564951	0.718952	1.30662	-0.607483	0.692875	1.31023	-0.524461	1.45469	0.200398	-0.390999	0.886523	1.06472	-0.366921	1.28651	0.487417	-0.352677	1.2767	0.406878	-0.429734	1.31168	0.317927	-0.353902	1.06154	0.861124	-0.493072	1.16512	0.80199	-0.45995	1.16743	0.670591	-0.438848	1.44002	0.227733	-0.304892	0.846849	1.41383	-0.564334	0.77098	1.40501	-0.542072	0.797442	1.34634	-0.590754	1.02138	1.48263	-0.130621	1.04856	0.995674	-0.211868	0.324292	0.427854	-0.259425	1.09936	1.17337	-0.178993	1.04119	1.19198	-0.0740414	1.11898	1.11921	-0.137593	0.941637	1.21262	0.00139887	0.889232	1.18852	-0.060405	0.33285	0.225862	-0.236093	0.888912	1.06494	-0.268183	0.619172	0.46381	-0.281203	0.552982	0.458328	-0.211542	0.502967	0.411578	-0.27609	0.913854	0.861657	-0.152303	0.767675	0.648893	-0.209931	0.35445	0.229974	-0.330423	0.992642	1.35194	-0.0657983	0.916715	1.34764	-0.057586	0.965766	1.28074	-0.0222667
36	0.541667	0.914366	1.52157	-0.320012	1.04273	1.46896	-0.309105	0.949135	1.48349	-0.50578	1.04539	1.02712	-0.437654	1.27457	0.14026	-0.360356	0.894665	1.15122	-0.513274	0.806752	1.21026	-0.595517	0.870676	1.11597	-0.567947	0.719871	1.30423	-0.607632	0.694324	1.30655	-0.524393	1.46962	0.206477	-0.385268	0.886169	1.0634	-0.368018	1.28429	0.483251	-0.350962	1.27943	0.402849	-0.427641	1.31905	0.316705	-0.35064	1.05859	0.855646	-0.493555	1.16147	0.793394	-0.462334	1.15943	0.662606	-0.438301	1.45175	0.234327	-0.299843	0.847371	1.41159	-0.564672	0.77153	1.40221	-0.541252	0.797859	1.34458	-0.590918	1.0205	1.48223	-0.130759	1.04872	0.997612	-0.210705	0.32111	0.45789	-0.257599	1.09707	1.16792	-0.177839	1.03981	1.18877	-0.0730332	1.11591	1.11385	-0.135955	0.940451	1.21287	0.00202042	0.887417	1.18904	-0.0595022	0.312966	0.256498	-0.230559	0.887515	1.06588	-0.269415	0.619207	0.466829	-0.277159	0.550353	0.470126	-0.208453	0.498209	0.425144	-0.272009	0.916565	0.862114	-0.152307	0.775477	0.643018	-0.208042	0.336811	0.256876	-0.324363	0.991676	1.35152	-0.0656501	0.915781	1.34709	-0.0569937	0.964776	1.28074	-0.0214481
37	0.55	0.914639	1.52075	-0.321522	1.04264	1.46816	-0.30938	0.950154	1.48187	-0.506494	1.0443	1.02469	-0.43536	1.2846	0.136718	-0.357437	0.897977	1.14705	-0.515683	0.809697	1.20666	-0.597096	0.874324	1.11231	-0.570804	0.72212	1.30036	-0.607954	0.696998	1.30156	-0.524619	1.47757	0.209287	-0.380888	0.88526	1.06106	-0.368682	1.28081	0.47891	-0.349111	1.27839	0.398731	-0.425544	1.32238	0.315288	-0.347694	1.05496	0.849682	-0.494726	1.15654	0.783927	-0.465264	1.15067	0.654893	-0.437659	1.45777	0.237147	-0.295802	0.848669	1.40862	-0.565537	0.773051	1.39849	-0.540609	0.799525	1.34151	-0.591103	1.01913	1.4813	-0.130907	1.04891	0.99882	-0.209671	0.323424	0.488249	-0.25667	1.0944	1.16053	-0.175839	1.03736	1.18419	-0.0716569	1.11162	1.10662	-0.13316	0.93788	1.21258	0.00219815	0.884655	1.18928	-0.0594077	0.296649	0.289087	-0.224632	0.885775	1.06545	-0.270445	0.621782	0.469566	-0.273019	0.551704	0.481762	-0.205497	0.49729	0.438333	-0.268168	0.920852	0.860359	-0.151971	0.784276	0.636192	-0.20609	0.323407	0.284513	-0.317427	0.9895	1.35089	-0.0653799	0.913653	1.3461	-0.0573417	0.962502	1.28027	-0.0209163
38	0.558333	0.915063	1.5194	-0.323186	1.04267	1.46661	-0.309461	0.95175	1.4798	-0.507262	1.0429	1.0226	-0.433772	1.28723	0.132893	-0.353288	0.902269	1.14164	-0.51818	0.813749	1.20153	-0.598699	0.878835	1.10723	-0.573531	0.725557	1.29503	-0.608459	0.700702	1.29535	-0.525149	1.47876	0.207936	-0.378246	0.883908	1.05789	-0.368801	1.27644	0.47438	-0.347345	1.2739	0.393662	-0.423355	1.32189	0.312765	-0.344826	1.05075	0.843554	-0.496051	1.15081	0.774574	-0.467729	1.14258	0.648144	-0.436863	1.4589	0.235964	-0.293204	0.850591	1.40492	-0.566767	0.775348	1.39386	-0.540435	0.802356	1.33709	-0.591274	1.01763	1.47972	-0.131188	1.04907	0.998993	-0.209067	0.331082	0.518099	-0.256448	1.09113	1.1513	-0.173058	1.0337	1.17845	-0.0698778	1.10591	1.09774	-0.129184	0.933979	1.2118	0.00203615	0.881057	1.18918	-0.0599642	0.28592	0.323165	-0.218548	0.884102	1.0635	-0.271072	0.626622	0.471948	-0.269333	0.557369	0.492051	-0.203106	0.500093	0.451364	-0.265226	0.926266	0.85653	-0.151704	0.793644	0.628577	-0.203993	0.314309	0.312955	-0.310437	0.986414	1.3501	-0.0650837	0.910606	1.34494	-0.0586415	0.959092	1.2794	-0.020678
